<?xml version="1.0" encoding="UTF-8"?>
<svg xmlns="http://www.w3.org/2000/svg" xmlns:xlink="http://www.w3.org/1999/xlink" width="11" height="20" viewBox="0 0 11 20" version="1.1">
<g id="surface1">
<path style=" stroke:none;fill-rule:nonzero;fill:rgb(0%,0%,0%);fill-opacity:1;" d="M 9.167969 6.667969 L 6.417969 2.285156 C 5.894531 1.433594 5.105469 1.433594 4.582031 2.285156 L 1.832031 6.667969 C 1.539062 7.144531 1.371094 7.832031 1.375 8.550781 L 1.375 15.832031 C 1.375 17.214844 1.992188 18.332031 2.75 18.332031 L 8.25 18.332031 C 9.007812 18.332031 9.625 17.214844 9.625 15.832031 L 9.625 8.542969 C 9.625 7.828125 9.460938 7.144531 9.167969 6.667969 Z M 6.417969 16.667969 L 4.582031 16.667969 L 4.582031 12.5 C 4.582031 12.039062 4.789062 11.667969 5.042969 11.667969 L 5.957031 11.667969 C 6.210938 11.667969 6.417969 12.039062 6.417969 12.5 Z M 8.707031 15.832031 C 8.707031 16.292969 8.503906 16.667969 8.25 16.667969 L 7.332031 16.667969 L 7.332031 12.5 C 7.332031 11.121094 6.71875 10 5.957031 10 L 5.042969 10 C 4.28125 10 3.667969 11.121094 3.667969 12.5 L 3.667969 16.667969 L 2.75 16.667969 C 2.496094 16.667969 2.292969 16.292969 2.292969 15.832031 L 2.292969 8.542969 C 2.292969 8.300781 2.347656 8.074219 2.449219 7.917969 L 5.199219 3.542969 C 5.371094 3.265625 5.628906 3.265625 5.800781 3.542969 L 8.550781 7.917969 C 8.652344 8.074219 8.707031 8.300781 8.707031 8.542969 Z M 8.707031 15.832031 "/>
</g>
</svg>
